#define arancia_width 20
#define arancia_height 20
static char arancia_bits[] = {
  0x00, 0x0F, 0x00, 0xC0, 0x39, 0x00, 0x30, 0xE2, 0x00, 0xD8, 0x8F, 0x01, 
  0xEC, 0x7F, 0x03, 0xE4, 0x7F, 0x02, 0xF2, 0xFF, 0x02, 0xFA, 0xFF, 0x06, 
  0xFA, 0xF9, 0x05, 0xFA, 0xF0, 0x05, 0xFB, 0xF9, 0x04, 0xFA, 0xFF, 0x05, 
  0xFA, 0xFF, 0x06, 0xE4, 0x7F, 0x02, 0xEC, 0x7F, 0x01, 0xD8, 0xBF, 0x01, 
  0x30, 0xC6, 0x00, 0xE0, 0x38, 0x00, 0x00, 0x07, 0x00, 0x00, 0x00, 0x00, 
  };
