#define cioccolata_width 20
#define cioccolata_height 20
static char cioccolata_bits[] = {
  0x00, 0x00, 0x00, 0x00, 0x00, 0x00, 0x00, 0x01, 0x00, 0x80, 0xFF, 0x01, 
  0x80, 0xFF, 0x03, 0xC0, 0xFF, 0x03, 0xC0, 0xFF, 0x03, 0xE0, 0xFF, 0x01, 
  0xF0, 0xFF, 0x01, 0xF0, 0xFF, 0x00, 0xF8, 0xFF, 0x00, 0xF8, 0x7F, 0x00, 
  0xFC, 0x3F, 0x00, 0xFC, 0x3F, 0x00, 0xFC, 0x1F, 0x00, 0xF0, 0x0F, 0x00, 
  0xC0, 0x0F, 0x00, 0x00, 0x0F, 0x00, 0x00, 0x04, 0x00, 0x00, 0x00, 0x00, 
  };
