#define cuore_width 20
#define cuore_height 20
static char cuore_bits[] = {
  0x00, 0x00, 0x00, 0x00, 0x00, 0x00, 0xF0, 0xF0, 0x00, 0xFC, 0xFB, 0x03, 
  0xFE, 0xFF, 0x07, 0xFE, 0xFF, 0x07, 0xFE, 0xFF, 0x0F, 0xFF, 0xFF, 0x07, 
  0xFE, 0xFF, 0x0F, 0xFE, 0xFF, 0x07, 0xFE, 0xFF, 0x07, 0xFC, 0xFF, 0x03, 
  0xF8, 0xFF, 0x01, 0xF0, 0xFF, 0x00, 0xE0, 0x7F, 0x00, 0xC0, 0x3F, 0x00, 
  0x80, 0x0F, 0x00, 0x00, 0x0E, 0x00, 0x00, 0x00, 0x00, 0x00, 0x00, 0x00, 
  };
