#define foglia_width 20
#define foglia_height 20
static char foglia_bits[] = {
  0x00, 0x00, 0x00, 0x00, 0x00, 0x01, 0x00, 0xC0, 0x07, 0x00, 0xF8, 0x07, 
  0x80, 0xFF, 0x07, 0xC0, 0xFF, 0x07, 0xF0, 0xFF, 0x07, 0xF8, 0xFF, 0x0F, 
  0xFC, 0xFF, 0x07, 0xFC, 0xFB, 0x0F, 0xFC, 0xFD, 0x07, 0x7C, 0xFF, 0x07, 
  0xBC, 0xFF, 0x03, 0xCC, 0xFF, 0x01, 0xE6, 0xFF, 0x01, 0xF2, 0xFF, 0x00, 
  0xC2, 0x3F, 0x00, 0x00, 0x08, 0x00, 0x00, 0x00, 0x00, 0x00, 0x00, 0x00, 
  };
