#define formica_width 20
#define formica_height 20
static char formica_bits[] = {
  0x00, 0x00, 0x00, 0x00, 0x00, 0x00, 0x00, 0x00, 0x00, 0x00, 0x00, 0x00, 
  0x00, 0x80, 0x03, 0x00, 0xC0, 0x00, 0x00, 0xF0, 0x00, 0x00, 0xD8, 0x01, 
  0x70, 0xFE, 0x01, 0xF8, 0xFF, 0x00, 0xFC, 0x47, 0x00, 0xFC, 0x19, 0x00, 
  0x1C, 0x0A, 0x00, 0x00, 0x00, 0x00, 0x00, 0x00, 0x00, 0x00, 0x00, 0x00, 
  0x00, 0x00, 0x00, 0x00, 0x00, 0x00, 0x00, 0x00, 0x00, 0x00, 0x00, 0x00, 
  };
