#define maglietta_width 20
#define maglietta_height 20
static char maglietta_bits[] = {
  0x00, 0x00, 0x00, 0x00, 0x00, 0x00, 0x00, 0x00, 0x00, 0x60, 0x60, 0x00, 
  0xF0, 0xF0, 0x00, 0xF8, 0xFF, 0x01, 0xFC, 0xFF, 0x03, 0xFE, 0xFF, 0x07, 
  0xFC, 0xFF, 0x03, 0xF8, 0xFF, 0x01, 0xE0, 0x7F, 0x00, 0xE0, 0x7F, 0x00, 
  0xE0, 0x7F, 0x00, 0xE0, 0x7F, 0x00, 0xE0, 0x7F, 0x00, 0xE0, 0x7F, 0x00, 
  0xA0, 0x5D, 0x00, 0x00, 0x00, 0x00, 0x00, 0x00, 0x00, 0x00, 0x00, 0x00, 
  };
