#define nuvola_width 20
#define nuvola_height 20
static char nuvola_bits[] = {
  0x00, 0x00, 0x00, 0x00, 0x00, 0x00, 0x00, 0x00, 0x00, 0x00, 0x0A, 0x00, 
  0x00, 0x3F, 0x00, 0xC0, 0x3F, 0x00, 0xC0, 0x7F, 0x00, 0xFC, 0xFF, 0x03, 
  0xFC, 0xFF, 0x07, 0xFE, 0xFF, 0x0F, 0xFF, 0xFF, 0x0F, 0xFF, 0xFF, 0x0F, 
  0xFE, 0xFF, 0x0F, 0x6A, 0x9B, 0x02, 0x00, 0x00, 0x00, 0x00, 0x00, 0x00, 
  0x00, 0x00, 0x00, 0x00, 0x00, 0x00, 0x00, 0x00, 0x00, 0x00, 0x00, 0x00, 
  };
