#define onde_width 20
#define onde_height 20
static char onde_bits[] = {
  0x00, 0x00, 0x00, 0x00, 0x00, 0x00, 0x00, 0x00, 0x00, 0x00, 0x00, 0x00, 
  0x00, 0x00, 0x00, 0x00, 0x20, 0x00, 0x00, 0xFE, 0x00, 0x40, 0x7F, 0x01, 
  0xE0, 0x9F, 0x01, 0xF0, 0xFF, 0x00, 0xF8, 0xFF, 0x03, 0xFE, 0xFF, 0x03, 
  0x00, 0x50, 0x00, 0x00, 0x00, 0x00, 0x00, 0x00, 0x00, 0x00, 0x00, 0x00, 
  0x00, 0x00, 0x00, 0x00, 0x00, 0x00, 0x00, 0x00, 0x00, 0x00, 0x00, 0x00, 
  };
