#define principessa_width 20
#define principessa_height 20
static char principessa_bits[] = {
  0x00, 0x07, 0x00, 0xA0, 0x1A, 0x00, 0xA0, 0x17, 0x00, 0x60, 0x38, 0x00, 
  0x90, 0x40, 0x00, 0x18, 0x40, 0x00, 0x00, 0x0E, 0x00, 0xE0, 0x3F, 0x00, 
  0xF8, 0x7F, 0x00, 0xE4, 0xBF, 0x00, 0xE0, 0x1F, 0x00, 0xD8, 0xDF, 0x00, 
  0x40, 0x02, 0x00, 0x80, 0x0C, 0x00, 0x40, 0x19, 0x00, 0x60, 0x11, 0x00, 
  0x20, 0x29, 0x00, 0xD0, 0x24, 0x00, 0x50, 0x78, 0x00, 0x70, 0x14, 0x00, 
  };
