#define rosa_width 20
#define rosa_height 20
static char rosa_bits[] = {
  0x00, 0x00, 0x00, 0x80, 0x1B, 0x00, 0xC0, 0x3B, 0x00, 0xE0, 0x37, 0x00, 
  0xF0, 0x7B, 0x00, 0xF8, 0xFF, 0x00, 0xF0, 0xFF, 0x00, 0xF0, 0xFF, 0x00, 
  0xF0, 0xFF, 0x00, 0xE0, 0x7F, 0x00, 0xE0, 0x3F, 0x00, 0x6C, 0xCF, 0x03, 
  0xFC, 0xF2, 0x03, 0xF8, 0xFA, 0x00, 0xF0, 0xFB, 0x00, 0x40, 0x32, 0x00, 
  0x00, 0x02, 0x00, 0x00, 0x06, 0x00, 0x00, 0x04, 0x00, 0x00, 0x00, 0x00, 
  };
