#define sole_width 20
#define sole_height 20
static char sole_bits[] = {
  0x00, 0x00, 0x00, 0x00, 0x00, 0x00, 0x00, 0x04, 0x00, 0x60, 0x66, 0x00, 
  0xC0, 0x74, 0x00, 0x88, 0x0F, 0x02, 0xD8, 0xBF, 0x01, 0xF0, 0xFF, 0x00, 
  0xE0, 0x7F, 0x00, 0xFC, 0xFF, 0x03, 0xEC, 0x7F, 0x03, 0xE0, 0x7F, 0x00, 
  0xF0, 0x7F, 0x00, 0xD8, 0xFF, 0x01, 0x04, 0x1F, 0x02, 0xE0, 0x32, 0x00, 
  0x60, 0x26, 0x00, 0x00, 0x06, 0x00, 0x00, 0x00, 0x00, 0x00, 0x00, 0x00, 
  };
