#define spada_width 20
#define spada_height 20
static char spada_bits[] = {
  0x00, 0x80, 0x0F, 0x00, 0xC0, 0x0E, 0x00, 0x60, 0x0C, 0x00, 0x30, 0x08, 
  0x00, 0x18, 0x0C, 0x00, 0x4C, 0x06, 0x00, 0x27, 0x03, 0x00, 0x93, 0x01, 
  0xC8, 0xC9, 0x00, 0xF8, 0x64, 0x00, 0x70, 0x36, 0x00, 0xF0, 0x19, 0x00, 
  0xE0, 0x0D, 0x00, 0xF0, 0x07, 0x00, 0xF8, 0x07, 0x00, 0x78, 0x06, 0x00, 
  0x1E, 0x04, 0x00, 0x0F, 0x00, 0x00, 0x07, 0x00, 0x00, 0x04, 0x00, 0x00, 
  };
